<?xml version="1.0" encoding="utf-8"?>
<!-- Generator: Adobe Illustrator 16.0.0, SVG Export Plug-In . SVG Version: 6.00 Build 0)  -->
<!DOCTYPE svg PUBLIC "-//W3C//DTD SVG 1.1//EN" "http://www.w3.org/Graphics/SVG/1.1/DTD/svg11.dtd">
<svg version="1.1" id="Layer_1" xmlns="http://www.w3.org/2000/svg" xmlns:xlink="http://www.w3.org/1999/xlink" x="0px" y="0px"
	 width="66px" height="66px" viewBox="0 0 66 66" enable-background="new 0 0 66 66" xml:space="preserve">
<g>
	<g>
		<g>
			<g>
				<polygon fill="#149931" points="32.995,45.867 43.009,35.859 55.849,35.859 32.995,58.707 10.152,35.859 22.989,35.859 				"/>
			</g>
			<g>
				<polyline fill="#12B516" points="32.995,58.566 10.152,35.859 22.989,35.859 32.995,45.727 43.009,35.719 				"/>
			</g>
			
				<rect x="28.301" y="23.469" transform="matrix(-0.7071 0.7072 -0.7072 -0.7071 76.252 24.748)" fill="#149931" width="9.399" height="9.399"/>
			<polyline fill="#12B516" points="33,34.812 26.354,28.168 33,21.521 			"/>
			
				<rect x="28.301" y="9.239" transform="matrix(-0.7072 0.7071 -0.7071 -0.7072 66.1908 0.4607)" fill="#149931" width="9.397" height="9.397"/>
			<polyline fill="#12B516" points="33,20.584 26.354,13.938 33,7.293 			"/>
		</g>
	</g>
	<g>
		<polygon fill="#12B516" points="9,50.859 17.024,50.859 18.024,52.859 9,52.859 		"/>
		<g>
			<polygon fill="#149931" points="9,55.859 23.774,55.859 24.774,57.859 9,57.859 			"/>
			<g>
				<polygon fill="#149931" points="57,55.859 42.226,55.859 41.226,57.859 57,57.859 				"/>
				<polygon fill="#12B516" points="57,50.859 48.976,50.859 47.976,52.859 57,52.859 				"/>
			</g>
		</g>
	</g>
</g>
</svg>
